<svg width="13" height="13" viewBox="0 0 13 13" fill="none" xmlns="http://www.w3.org/2000/svg">
    <!-- Stems joining at top -->
    <path d="M5.5 4.2C5.5 4.2 5.8 3 6.2 2.2C6.4 1.8 6.5 1.5 6.5 1.2"
          stroke="#5D4037" stroke-width="0.6" stroke-linecap="round" fill="none"/>
    <path d="M9 5C9 5 8.2 3.4 7.4 2.2C7 1.7 6.7 1.4 6.5 1.2"
          stroke="#5D4037" stroke-width="0.6" stroke-linecap="round" fill="none"/>
    <!-- Leaf at fork -->
    <path d="M6.5 1.2C7 0.6 8 0.3 8.8 0.6C9.4 0.8 9.3 1.4 8.7 1.4C8.1 1.5 7.3 1.2 6.7 0.8Z"
          fill="#4CAF50"/>
    <path d="M6.5 1.2C5.8 0.8 4.8 0.7 4.2 1.1C3.7 1.4 3.9 1.9 4.5 1.8C5 1.7 5.8 1.3 6.3 0.9Z"
          fill="#66BB6A"/>
    <!-- Back cherry (right, slightly behind) -->
    <circle cx="9" cy="8.5" r="3.5" fill="url(#acerolaGrad2)"/>
    <path d="M9 5.5C9 5.5 9 8 9 9.5" stroke="#C62828" stroke-width="0.25" opacity="0.35"/>
    <path d="M7.5 6.5C7.5 6.5 8.3 8.5 8.6 9.8" stroke="#C62828" stroke-width="0.25" opacity="0.25"/>
    <path d="M10.5 6.5C10.5 6.5 9.7 8.5 9.4 9.8" stroke="#C62828" stroke-width="0.25" opacity="0.25"/>
    <ellipse cx="7.8" cy="7.5" rx="0.6" ry="1" fill="white" opacity="0.3"/>
    <!-- Front cherry (left, in front) -->
    <circle cx="4.5" cy="8.8" r="3.8" fill="url(#acerolaGrad1)"/>
    <path d="M4.5 5.5C4.5 5.5 4.5 8.2 4.5 9.8" stroke="#C62828" stroke-width="0.25" opacity="0.35"/>
    <path d="M2.8 6.8C2.8 6.8 3.7 8.8 4 10.2" stroke="#C62828" stroke-width="0.25" opacity="0.25"/>
    <path d="M6.2 6.8C6.2 6.8 5.3 8.8 5 10.2" stroke="#C62828" stroke-width="0.25" opacity="0.25"/>
    <ellipse cx="3.2" cy="7.8" rx="0.7" ry="1.1" fill="white" opacity="0.35"/>
    <defs>
        <radialGradient id="acerolaGrad1" cx="3.5" cy="7.5" r="4.5" gradientUnits="userSpaceOnUse">
            <stop offset="0" stop-color="#FF5252"/>
            <stop offset="0.5" stop-color="#E53935"/>
            <stop offset="1" stop-color="#B71C1C"/>
        </radialGradient>
        <radialGradient id="acerolaGrad2" cx="8" cy="7" r="4" gradientUnits="userSpaceOnUse">
            <stop offset="0" stop-color="#EF5350"/>
            <stop offset="0.5" stop-color="#D32F2F"/>
            <stop offset="1" stop-color="#A51C1C"/>
        </radialGradient>
    </defs>
</svg>
